# xmcd
#
# Track frame offsets: 
#        150
#        12845
#        22830
#        37014
#        70652
#        84555
#        93939
#        99820
#        117162
#        133878
#        149616
#
# Disc length: 2193 seconds
#
# Revision: 0
# Processed by: cddbd v1.5.1PL2 Copyright (c) Steve Scherf et al.
# Submitted via: ExactAudioCopy v0.95b3
#
DISCID=87088f0b
DTITLE=Various Artist - Heavy Duty Harpin'
DYEAR=1900
DGENRE=Blues
TTITLE0=Orange Blossom Special/Charlie McCoy
TTITLE1=Peg O' My Heart/Harmonicats
TTITLE2=Baby Scratch My Back/Madcat Ruth
TTITLE3=An American In Paris/Pete Pedersen
TTITLE4=Paperback Writer/Cambridge Harmonica Orchestra
TTITLE5=Sophisticated Lady/Toots Thielemans
TTITLE6=Fox Chase/Deford Bailey
TTITLE7=Ruby/Richard Hayman
TTITLE8=Let It Fall Into Place/Steve Morrell
TTITLE9=Drown In My Own Tears/Kirk Jelly Roll Johnson
TTITLE10=Got Me Crazy/Andy Just
EXTD=
EXTT0=
EXTT1=
EXTT2=
EXTT3=
EXTT4=
EXTT5=
EXTT6=
EXTT7=
EXTT8=
EXTT9=
EXTT10=
PLAYORDER=
